<svg xmlns="http://www.w3.org/2000/svg" xmlns:xlink="http://www.w3.org/1999/xlink" width="500" zoomAndPan="magnify" viewBox="0 0 375 374.999991" height="500" preserveAspectRatio="xMidYMid meet" version="1.0"><defs><g/><clipPath id="f70f84ff10"><path d="M 22.453125 223.21875 L 180.148438 223.21875 L 180.148438 348.660156 L 22.453125 348.660156 Z M 22.453125 223.21875 " clip-rule="nonzero"/></clipPath><clipPath id="bdbfaac3a0"><path d="M 119.410156 265.371094 L 142.75 265.371094 L 142.75 322.109375 L 119.410156 322.109375 Z M 119.410156 265.371094 " clip-rule="nonzero"/></clipPath><clipPath id="fbe326fd68"><path d="M 135.375 272.832031 L 159.988281 272.832031 L 159.988281 319.558594 L 135.375 319.558594 Z M 135.375 272.832031 " clip-rule="nonzero"/></clipPath></defs><rect x="-37.5" width="450" fill="#ffffff" y="-37.499999" height="449.999989" fill-opacity="1"/><rect x="-37.5" width="450" fill="#ffffff" y="-37.499999" height="449.999989" fill-opacity="1"/><g fill="#222229" fill-opacity="1"><g transform="translate(80.506335, 311.787243)"><g><path d="M 108.515625 3.8125 C 93.023438 3.8125 78.742188 1.019531 65.671875 -4.5625 C 52.609375 -10.15625 41.566406 -17.898438 32.546875 -27.796875 C 23.535156 -37.691406 17.128906 -48.988281 13.328125 -61.6875 L 46.078125 -78.4375 C 50.898438 -66.25 58.445312 -55.835938 68.71875 -47.203125 C 79 -38.578125 92.265625 -34.265625 108.515625 -34.265625 C 121.960938 -34.265625 133.445312 -37.691406 142.96875 -44.546875 C 152.488281 -51.398438 157.25 -61.425781 157.25 -74.625 C 157.25 -86.300781 153.125 -94.992188 144.875 -100.703125 C 136.625 -106.421875 124.882812 -112.070312 109.65625 -117.65625 L 91.375 -124.5 C 78.175781 -129.582031 66.4375 -135.359375 56.15625 -141.828125 C 45.875 -148.296875 37.8125 -156.160156 31.96875 -165.421875 C 26.132812 -174.691406 23.21875 -185.925781 23.21875 -199.125 C 23.21875 -213.851562 26.960938 -226.484375 34.453125 -237.015625 C 41.941406 -247.546875 52.03125 -255.726562 64.71875 -261.5625 C 77.414062 -267.40625 91.503906 -270.328125 106.984375 -270.328125 C 122.210938 -270.328125 135.472656 -267.597656 146.765625 -262.140625 C 158.066406 -256.679688 167.648438 -249.703125 175.515625 -241.203125 C 183.390625 -232.703125 189.359375 -223.882812 193.421875 -214.75 L 162.203125 -196.84375 C 155.597656 -208.007812 147.976562 -216.828125 139.34375 -223.296875 C 130.71875 -229.773438 120.0625 -233.015625 107.375 -233.015625 C 94.9375 -233.015625 84.71875 -229.84375 76.71875 -223.5 C 68.726562 -217.15625 64.734375 -208.648438 64.734375 -197.984375 C 64.734375 -181.742188 77.171875 -168.925781 102.046875 -159.53125 L 120.703125 -152.6875 C 147.097656 -143.039062 167.019531 -132.378906 180.46875 -120.703125 C 193.925781 -109.023438 200.65625 -93.410156 200.65625 -73.859375 C 200.65625 -57.109375 196.148438 -42.957031 187.140625 -31.40625 C 178.128906 -19.863281 166.578125 -11.109375 152.484375 -5.140625 C 138.398438 0.828125 123.742188 3.8125 108.515625 3.8125 Z M 108.515625 3.8125 "/></g></g></g><g clip-path="url(#f70f84ff10)"><path fill="#ffffff" d="M 22.453125 223.21875 L 180.234375 223.21875 L 180.234375 348.660156 L 22.453125 348.660156 Z M 22.453125 223.21875 " fill-opacity="1" fill-rule="nonzero"/></g><g fill="#ffa500" fill-opacity="1"><g transform="translate(107.121145, 329.738734)"><g><path d="M 5.859375 0 L 5.859375 -68.453125 L 27.96875 -68.453125 C 32.914062 -68.453125 37.492188 -67.570312 41.703125 -65.8125 C 45.910156 -64.050781 49.578125 -61.617188 52.703125 -58.515625 C 55.828125 -55.421875 58.253906 -51.800781 59.984375 -47.65625 C 61.710938 -43.519531 62.578125 -39.109375 62.578125 -34.421875 C 62.578125 -29.597656 61.710938 -25.097656 59.984375 -20.921875 C 58.253906 -16.753906 55.828125 -13.101562 52.703125 -9.96875 C 49.578125 -6.84375 45.910156 -4.398438 41.703125 -2.640625 C 37.492188 -0.878906 32.914062 0 27.96875 0 Z M 16.625 -10.171875 L 27.875 -10.171875 C 32.882812 -10.171875 37.148438 -11.257812 40.671875 -13.4375 C 44.191406 -15.625 46.894531 -18.554688 48.78125 -22.234375 C 50.675781 -25.921875 51.625 -29.984375 51.625 -34.421875 C 51.625 -38.785156 50.675781 -42.757812 48.78125 -46.34375 C 46.894531 -49.925781 44.191406 -52.8125 40.671875 -55 C 37.148438 -57.1875 32.882812 -58.28125 27.875 -58.28125 L 16.625 -58.28125 Z M 16.625 -10.171875 "/></g></g></g><g clip-path="url(#bdbfaac3a0)"><path fill="#ffa500" d="M 119.410156 265.371094 L 142.75 265.371094 L 142.75 322.082031 L 119.410156 322.082031 Z M 119.410156 265.371094 " fill-opacity="1" fill-rule="nonzero"/></g><g clip-path="url(#fbe326fd68)"><path fill="#ffa500" d="M 135.375 272.832031 L 159.988281 272.832031 L 159.988281 319.5625 L 135.375 319.5625 Z M 135.375 272.832031 " fill-opacity="1" fill-rule="nonzero"/></g></svg>